<?xml version="1.0" encoding="iso-8859-1"?>
<!-- Uploaded to: SVG Repo, www.svgrepo.com, Generator: SVG Repo Mixer Tools -->
<svg height="800px" width="800px" version="1.1" id="Layer_1" xmlns="http://www.w3.org/2000/svg" xmlns:xlink="http://www.w3.org/1999/xlink" 
	 viewBox="0 0 512.853 512.853" xml:space="preserve">
<g transform="translate(1 1)">
	<path style="fill:#FFE100;" d="M459.8,101.865L383,7.998v59.733l0,0c-42.667,0-103.253,55.467-128,93.867
		c-24.747-38.4-85.333-93.867-128-93.867V7.998l-76.8,93.867l76.8,93.867v-59.733c42.667,0,93.867,67.413,93.867,119.467v247.467
		h68.267V255.465c0-52.053,51.2-119.467,93.867-119.467v59.733L459.8,101.865z"/>
	<polygon style="fill:#FFA800;" points="383,7.998 459.8,101.865 383,195.732 502.467,101.865 	"/>
	<polygon style="fill:#FFFFFF;" points="127,7.998 7.533,101.865 127,195.732 50.2,101.865 	"/>
	<path d="M289.133,511.465h-68.267c-5.12,0-8.533-3.413-8.533-8.533v-42.667c0-5.12,3.413-8.533,8.533-8.533
		c5.12,0,8.533,3.413,8.533,8.533v34.133h51.2V255.465c0-58.027,46.933-128,102.4-128c5.12,0,8.533,3.413,8.533,8.533v41.813
		l97.28-75.947l-97.28-75.947v41.813c0,5.12-3.413,8.533-8.533,8.533c-45.227,0-86.187,46.08-121.173,90.453
		c-3.413,4.267-10.24,4.267-13.653,0C213.187,122.345,172.227,76.265,127,76.265c-5.12,0-8.533-3.413-8.533-8.533V25.918
		l-97.28,75.947l97.28,75.947v-41.813c0-5.12,3.413-8.533,8.533-8.533c56.32,0,102.4,72.533,102.4,119.467v145.067
		c0,5.12-3.413,8.533-8.533,8.533c-5.12,0-8.533-3.413-8.533-8.533V246.932c0-36.693-34.133-94.72-76.8-101.547v50.347
		c0,3.413-1.707,5.973-5.12,7.68c-2.56,1.707-6.827,0.853-9.387-0.853L1.56,108.692c-1.707-1.707-2.56-4.267-2.56-6.827
		c0-2.56,0.853-5.12,3.413-6.827L121.88,1.172c2.56-1.707,5.973-2.56,9.387-0.853c2.56,1.707,4.267,4.267,4.267,7.68v52.053
		c45.227,4.267,85.333,45.227,119.467,87.893c34.133-42.667,74.24-83.627,119.467-87.893V7.998c0-3.413,1.707-5.973,5.12-7.68
		c2.56-1.707,6.827-0.853,9.387,0.853L508.44,95.038c1.707,1.707,3.413,4.267,3.413,6.827c0,2.56-0.853,5.12-3.413,6.827
		l-119.467,93.867c-2.56,1.707-5.973,2.56-9.387,0.853c-3.413-1.707-5.12-4.267-5.12-7.68v-50.347
		c-41.813,6.827-76.8,64-76.8,110.08v247.467C297.667,508.052,294.253,511.465,289.133,511.465z"/>
	<path d="M229.4,426.132c0-5.12-3.413-8.533-8.533-8.533c-5.12,0-8.533,3.413-8.533,8.533c0,5.12,3.413,8.533,8.533,8.533
		C225.987,434.665,229.4,431.252,229.4,426.132"/>
</g>
</svg>